# xmcd CD database file
#
# Track frame offsets:
#	150
#	8840
#	20670
#	33605
#	46790
#	59298
#
# Disc length: 974 seconds
#
# Revision: 0
# Processed by: cddbd v1.5.1PL2 Copyright (c) Steve Scherf et al.
# Submitted via: CDex 1.51
#
DISCID=4403cc06
DTITLE=Snoozer - Snoozer Sampler 2006 02
DYEAR=2006
DGENRE=Alternative
TTITLE0=ブラッディ・マリー、気をつけろ！
TTITLE1=王様はロバのいうとおり
TTITLE2=君のあふれる音
TTITLE3=PHYSIQUE
TTITLE4=Drop Zone
TTITLE5=TWO STEP COLORS
EXTD=YEAR: 2006
EXTT0=
EXTT1=
EXTT2=
EXTT3=
EXTT4=
EXTT5=
PLAYORDER=
